<svg width="310" height="96" viewBox="0 0 310 96" fill="none" xmlns="http://www.w3.org/2000/svg">
<path d="M41.8444 95.4057C36.2467 95.4057 31.2554 94.1462 26.8705 91.6272C22.4856 89.1083 19.0337 85.6563 16.5148 81.2715V94.0063H0.141479V0.59462H18.8938V33.5511C21.506 29.1662 24.9113 25.7143 29.1096 23.1953C33.4012 20.6764 38.3924 19.4169 44.0834 19.4169C50.4275 19.4169 55.9786 21.1895 60.7366 24.7347C65.588 28.1866 69.3664 32.8047 72.072 38.589C74.7775 44.3733 76.1303 50.7174 76.1303 57.6212C76.1303 64.7116 74.6376 71.1023 71.6521 76.7933C68.6667 82.4843 64.5617 87.0091 59.3372 90.3677C54.206 93.7264 48.375 95.4057 41.8444 95.4057ZM36.6665 79.4522C40.6782 79.4522 44.1767 78.4726 47.1622 76.5134C50.2409 74.5542 52.6199 71.942 54.2993 68.6767C56.0719 65.318 56.9582 61.6795 56.9582 57.7611C56.9582 53.7495 56.1185 50.0643 54.4392 46.7057C52.8532 43.2538 50.6141 40.5016 47.722 38.4491C44.8298 36.3966 41.5178 35.3703 37.786 35.3703C33.681 35.3703 29.9026 36.7698 26.4507 39.5686C23.0921 42.2742 20.5731 45.6328 18.8938 49.6445V67.1373C20.1066 70.7758 22.4856 73.7612 26.0309 76.0936C29.5761 78.3327 33.1213 79.4522 36.6665 79.4522Z" fill="#02274F"/>
<path d="M74.4863 94.0059C74.4863 88.5015 75.0927 83.6035 76.3056 79.312C77.6117 75.0204 79.8508 71.1486 83.0228 67.6967C86.1949 64.2448 90.673 60.8862 96.4573 57.6209C101.589 54.9153 105.88 52.6296 109.332 50.7637C112.784 48.8978 115.396 47.1252 117.169 45.4459C119.035 43.6733 119.968 41.6208 119.968 39.2884C119.968 36.4895 118.848 34.1105 116.609 32.1513C114.37 30.0988 111.198 29.0726 107.093 29.0726C102.615 29.0726 98.743 30.1455 95.4777 32.2913C92.3057 34.4371 89.5535 36.9094 87.2211 39.7082L75.326 25.9938C77.0053 24.2212 79.5243 22.3087 82.8829 20.2562C86.2415 18.2037 90.2532 16.4311 94.9179 14.9384C99.5827 13.4457 104.714 12.6993 110.312 12.6993C119.828 12.6993 127.198 14.9384 132.423 19.4165C137.74 23.8014 140.399 29.4924 140.399 36.4895C140.399 40.8744 139.373 44.6062 137.321 47.6849C135.361 50.6704 132.889 53.236 129.904 55.3818C127.011 57.4343 124.213 59.2535 121.507 60.8395C115.536 63.825 110.825 66.4372 107.373 68.6763C104.014 70.9154 101.309 73.7143 99.2562 77.0729H141.939V94.0059H74.4863Z" fill="#02274F"/>
<path d="M190.534 95.4054C184.936 95.4054 179.945 94.1459 175.56 91.627C171.175 89.108 167.723 85.6561 165.204 81.2712V94.006H148.831V0.59433H167.583V33.5508C170.195 29.166 173.601 25.714 177.799 23.1951C182.09 20.6761 187.082 19.4166 192.773 19.4166C199.117 19.4166 204.668 21.1892 209.426 24.7344C214.277 28.1864 218.056 32.8045 220.761 38.5887C223.467 44.373 224.82 50.7171 224.82 57.6209C224.82 64.7114 223.327 71.1021 220.341 76.7931C217.356 82.4841 213.251 87.0089 208.027 90.3675C202.895 93.7261 197.064 95.4054 190.534 95.4054ZM185.356 79.452C189.368 79.452 192.866 78.4724 195.852 76.5132C198.93 74.554 201.309 71.9417 202.989 68.6764C204.761 65.3178 205.647 61.6793 205.647 57.7609C205.647 53.7492 204.808 50.064 203.129 46.7054C201.543 43.2535 199.303 40.5013 196.411 38.4488C193.519 36.3963 190.207 35.3701 186.475 35.3701C182.37 35.3701 178.592 36.7695 175.14 39.5683C171.781 42.2739 169.262 45.6325 167.583 49.6442V67.137C168.796 70.7755 171.175 73.761 174.72 76.0933C178.265 78.3324 181.811 79.452 185.356 79.452Z" fill="#02274F"/>
<path d="M231.921 94.0059V20.676H250.673V94.0059H231.921Z" fill="#FDCF00"/>
<path d="M309.746 90.2275C307.227 91.3471 304.102 92.4666 300.37 93.5861C296.731 94.7057 292.953 95.2655 289.034 95.2655C285.583 95.2655 282.411 94.659 279.518 93.4462C276.626 92.2334 274.294 90.3208 272.521 87.7085C270.842 85.003 270.002 81.5044 270.002 77.2129V35.0901H258.16V20.6761H270.002V0.59433H288.755V20.6761H304.148V35.0901H288.755V70.9154C288.755 73.4344 289.408 75.2537 290.714 76.3732C292.113 77.4928 293.793 78.0525 295.752 78.0525C297.711 78.0525 299.623 77.726 301.489 77.0729C303.355 76.4199 304.848 75.8601 305.968 75.3936L309.746 90.2275Z" fill="#FDCF00"/>
</svg>
